<svg xmlns="http://www.w3.org/2000/svg" xmlns:xlink="http://www.w3.org/1999/xlink" viewBox="0 0 500 500">
            <style>
                circle {
                    stroke: none;
                    fill: rgba(255,255,255, 0.5);
                }
            </style><circle cx="177" cy="18" r="0.375" /><circle cx="158" cy="107" r="0.3" /><circle cx="407" cy="20" r="0.325" /><circle cx="298" cy="133" r="0.375" /><circle cx="208" cy="90" r="0.375" /><circle cx="298" cy="80" r="0.325" /><circle cx="219" cy="111" r="0.3" /><circle cx="171" cy="57" r="0.375" /><circle cx="436" cy="131" r="0.45" /><circle cx="277" cy="192" r="0.375" /><circle cx="4" cy="97" r="0.4" /><circle cx="422" cy="122" r="0.275" /><circle cx="343" cy="94" r="0.35" /><circle cx="64" cy="72" r="0.275" /><circle cx="444" cy="126" r="0.375" /><circle cx="474" cy="31" r="0.375" /><circle cx="415" cy="35" r="0.375" /><circle cx="244" cy="78" r="0.5" /><circle cx="295" cy="134" r="0.375" /><circle cx="54" cy="260" r="0.375" /><circle cx="284" cy="60" r="0.4" /><circle cx="231" cy="101" r="0.375" /><circle cx="495" cy="98" r="0.35" /><circle cx="261" cy="123" r="0.475" /><circle cx="360" cy="93" r="0.375" /><circle cx="221" cy="62" r="0.325" /><circle cx="9" cy="69" r="0.375" /><circle cx="79" cy="165" r="0.35" /><circle cx="81" cy="64" r="0.375" /><circle cx="398" cy="31" r="0.375" /><circle cx="195" cy="68" r="0.475" /><circle cx="431" cy="167" r="0.4" /><circle cx="409" cy="68" r="0.3" /><circle cx="325" cy="67" r="0.4" /><circle cx="167" cy="27" r="0.375" /><circle cx="435" cy="109" r="0.4" /><circle cx="219" cy="10" r="0.375" /><circle cx="191" cy="121" r="0.375" /><circle cx="424" cy="36" r="0.4" /><circle cx="281" cy="223" r="0.375" /><circle cx="364" cy="119" r="0.3" /><circle cx="207" cy="175" r="0.35" /><circle cx="158" cy="142" r="0.375" /><circle cx="334" cy="45" r="0.425" /><circle cx="378" cy="148" r="0.35" /><circle cx="302" cy="182" r="0.325" /><circle cx="379" cy="25" r="0.375" /><circle cx="419" cy="113" r="0.4" /><circle cx="429" cy="57" r="0.4" /><circle cx="339" cy="26" r="0.35" /><circle cx="283" cy="16" r="0.375" /><circle cx="494" cy="232" r="0.375" /><circle cx="410" cy="41" r="0.375" /><circle cx="338" cy="68" r="0.4" /><circle cx="426" cy="17" r="0.325" /><circle cx="298" cy="106" r="0.35" /><circle cx="152" cy="171" r="0.4" /><circle cx="18" cy="84" r="0.325" /><circle cx="262" cy="194" r="0.425" /><circle cx="142" cy="109" r="0.4" /><circle cx="57" cy="27" r="0.325" /><circle cx="84" cy="91" r="0.325" /><circle cx="488" cy="234" r="0.35" /><circle cx="90" cy="56" r="0.45" /><circle cx="373" cy="185" r="0.25" /><circle cx="248" cy="137" r="0.35" /><circle cx="390" cy="57" r="0.4" /><circle cx="415" cy="16" r="0.325" /><circle cx="116" cy="5" r="0.45" /><circle cx="476" cy="16" r="0.325" /><circle cx="94" cy="37" r="0.4" /><circle cx="465" cy="47" r="0.375" /><circle cx="352" cy="193" r="0.4" /><circle cx="18" cy="288" r="0.375" /><circle cx="132" cy="108" r="0.325" /><circle cx="304" cy="29" r="0.35" /><circle cx="332" cy="89" r="0.35" /><circle cx="476" cy="47" r="0.4" /><circle cx="7" cy="130" r="0.4" /><circle cx="150" cy="117" r="0.375" /><circle cx="21" cy="63" r="0.425" /><circle cx="27" cy="91" r="0.425" /><circle cx="98" cy="195" r="0.375" /><circle cx="478" cy="51" r="0.375" /><circle cx="420" cy="140" r="0.45" /><circle cx="429" cy="148" r="0.425" /><circle cx="187" cy="148" r="0.375" /><circle cx="338" cy="169" r="0.375" /><circle cx="132" cy="2" r="0.375" /><circle cx="227" cy="252" r="0.4" /><circle cx="310" cy="213" r="0.325" /><circle cx="124" cy="31" r="0.375" /><circle cx="496" cy="48" r="0.325" /><circle cx="116" cy="38" r="0.325" /><circle cx="321" cy="69" r="0.4" /><circle cx="429" cy="9" r="0.425" /><circle cx="184" cy="208" r="0.35" /><circle cx="401" cy="5" r="0.475" /><circle cx="413" cy="287" r="0.425" /><circle cx="85" cy="124" r="0.3" /><circle cx="279" cy="15" r="0.35" /><circle cx="431" cy="119" r="0.275" /><circle cx="8" cy="187" r="0.375" /><circle cx="200" cy="172" r="0.4" /><circle cx="202" cy="137" r="0.3" /><circle cx="106" cy="75" r="0.45" /><circle cx="351" cy="192" r="0.3" /><circle cx="182" cy="44" r="0.375" /><circle cx="183" cy="115" r="0.325" /><circle cx="350" cy="154" r="0.475" /><circle cx="54" cy="160" r="0.325" /><circle cx="157" cy="144" r="0.35" /><circle cx="97" cy="166" r="0.375" /><circle cx="386" cy="23" r="0.325" /><circle cx="257" cy="55" r="0.35" /><circle cx="53" cy="227" r="0.3" /><circle cx="374" cy="204" r="0.3" /><circle cx="93" cy="50" r="0.4" /><circle cx="171" cy="107" r="0.375" /><circle cx="264" cy="208" r="0.35" /><circle cx="434" cy="103" r="0.275" /><circle cx="142" cy="144" r="0.3" /><circle cx="77" cy="88" r="0.45" /><circle cx="495" cy="201" r="0.275" /><circle cx="108" cy="114" r="0.3" /><circle cx="431" cy="163" r="0.4" /><circle cx="57" cy="24" r="0.375" /><circle cx="463" cy="54" r="0.4" /><circle cx="386" cy="91" r="0.35" /><circle cx="397" cy="43" r="0.4" /><circle cx="394" cy="177" r="0.375" /><circle cx="294" cy="18" r="0.375" /><circle cx="444" cy="71" r="0.275" /><circle cx="142" cy="218" r="0.3" /><circle cx="256" cy="166" r="0.4" /><circle cx="307" cy="178" r="0.375" /><circle cx="294" cy="120" r="0.3" /><circle cx="429" cy="68" r="0.35" /><circle cx="365" cy="45" r="0.375" /><circle cx="135" cy="181" r="0.4" /><circle cx="374" cy="72" r="0.3" /><circle cx="364" cy="67" r="0.425" /><circle cx="462" cy="115" r="0.375" /><circle cx="250" cy="45" r="0.4" /><circle cx="438" cy="88" r="0.35" /><circle cx="85" cy="158" r="0.375" /><circle cx="240" cy="52" r="0.375" /><circle cx="53" cy="97" r="0.25" /><circle cx="425" cy="223" r="0.425" /><circle cx="280" cy="291" r="0.425" /><circle cx="262" cy="209" r="0.325" /><circle cx="77" cy="219" r="0.325" /><circle cx="186" cy="110" r="0.275" /><circle cx="62" cy="78" r="0.275" /><circle cx="155" cy="159" r="0.325" /><circle cx="300" cy="33" r="0.375" /><circle cx="32" cy="70" r="0.325" /><circle cx="296" cy="174" r="0.425" /><circle cx="481" cy="65" r="0.3" /><circle cx="65" cy="70" r="0.4" /><circle cx="246" cy="163" r="0.425" /><circle cx="29" cy="153" r="0.375" /><circle cx="218" cy="18" r="0.4" /><circle cx="219" cy="30" r="0.375" /><circle cx="349" cy="136" r="0.375" /><circle cx="139" cy="156" r="0.35" /><circle cx="195" cy="17" r="0.325" /><circle cx="337" cy="137" r="0.3" /><circle cx="497" cy="230" r="0.4" /><circle cx="324" cy="147" r="0.4" /><circle cx="21" cy="17" r="0.325" /><circle cx="1" cy="56" r="0.4" /><circle cx="450" cy="155" r="0.4" /><circle cx="93" cy="145" r="0.375" /><circle cx="271" cy="78" r="0.375" /><circle cx="164" cy="28" r="0.375" /><circle cx="293" cy="286" r="0.35" /><circle cx="304" cy="272" r="0.425" /><circle cx="2" cy="24" r="0.4" /><circle cx="214" cy="40" r="0.325" /><circle cx="218" cy="241" r="0.45" /><circle cx="86" cy="121" r="0.4" /><circle cx="469" cy="44" r="0.375" /><circle cx="333" cy="100" r="0.3" /><circle cx="370" cy="19" r="0.325" /><circle cx="127" cy="86" r="0.425" /><circle cx="259" cy="124" r="0.35" /><circle cx="11" cy="2" r="0.425" /><circle cx="201" cy="79" r="0.425" /><circle cx="124" cy="58" r="0.35" /><circle cx="481" cy="259" r="0.375" /><circle cx="409" cy="142" r="0.375" /><circle cx="218" cy="15" r="0.375" /><circle cx="184" cy="43" r="0.35" /><circle cx="382" cy="123" r="0.4" /><circle cx="175" cy="22" r="0.375" /><circle cx="365" cy="43" r="0.4" /><circle cx="19" cy="24" r="0.375" /><circle cx="115" cy="30" r="0.4" /><circle cx="348" cy="53" r="0.35" /><circle cx="77" cy="0" r="0.425" /><circle cx="385" cy="321" r="0.4" /><circle cx="342" cy="300" r="0.275" /><circle cx="182" cy="107" r="0.375" /><circle cx="116" cy="64" r="0.3" /><circle cx="73" cy="54" r="0.25" /><circle cx="485" cy="54" r="0.45" /><circle cx="361" cy="74" r="0.3" /><circle cx="219" cy="19" r="0.325" /><circle cx="384" cy="71" r="0.275" /><circle cx="373" cy="121" r="0.325" /><circle cx="30" cy="195" r="0.425" /><circle cx="433" cy="56" r="0.4" /><circle cx="96" cy="97" r="0.425" /><circle cx="494" cy="210" r="0.375" /><circle cx="494" cy="150" r="0.325" /><circle cx="299" cy="90" r="0.25" /><circle cx="121" cy="75" r="0.275" /><circle cx="380" cy="204" r="0.4" /><circle cx="491" cy="299" r="0.325" /><circle cx="478" cy="55" r="0.35" /><circle cx="438" cy="36" r="0.425" /><circle cx="388" cy="98" r="0.475" /><circle cx="413" cy="53" r="0.425" /><circle cx="98" cy="53" r="0.325" /><circle cx="492" cy="253" r="0.475" /><circle cx="449" cy="126" r="0.275" /><circle cx="90" cy="30" r="0.35" /><circle cx="183" cy="219" r="0.4" /><circle cx="303" cy="39" r="0.35" /><circle cx="30" cy="96" r="0.325" /><circle cx="446" cy="9" r="0.325" /><circle cx="267" cy="259" r="0.325" /><circle cx="81" cy="203" r="0.325" /><circle cx="272" cy="33" r="0.425" /><circle cx="471" cy="13" r="0.4" /><circle cx="7" cy="369" r="0.425" /><circle cx="274" cy="124" r="0.35" /><circle cx="412" cy="114" r="0.3" /><circle cx="351" cy="216" r="0.4" /><circle cx="167" cy="32" r="0.475" /><circle cx="330" cy="16" r="0.475" /><circle cx="29" cy="109" r="0.4" /><circle cx="412" cy="80" r="0.45" /><circle cx="40" cy="83" r="0.375" /><circle cx="341" cy="36" r="0.4" /><circle cx="28" cy="7" r="0.375" /><circle cx="167" cy="159" r="0.375" /><circle cx="423" cy="31" r="0.45" /><circle cx="227" cy="34" r="0.35" /><circle cx="181" cy="64" r="0.325" /><circle cx="263" cy="137" r="0.425" /><circle cx="376" cy="104" r="0.35" /><circle cx="99" cy="42" r="0.375" /><circle cx="392" cy="253" r="0.35" /><circle cx="201" cy="7" r="0.35" /><circle cx="484" cy="105" r="0.35" /><circle cx="2" cy="271" r="0.325" /><circle cx="9" cy="219" r="0.325" /><circle cx="396" cy="191" r="0.3" /><circle cx="338" cy="128" r="0.375" /><circle cx="399" cy="17" r="0.35" /><circle cx="159" cy="146" r="0.475" /><circle cx="200" cy="92" r="0.375" /><circle cx="82" cy="8" r="0.35" /><circle cx="357" cy="70" r="0.3" /><circle cx="50" cy="75" r="0.375" /><circle cx="317" cy="136" r="0.5" /><circle cx="21" cy="41" r="0.375" /><circle cx="170" cy="177" r="0.325" /><circle cx="234" cy="43" r="0.4" /><circle cx="45" cy="129" r="0.4" /><circle cx="450" cy="10" r="0.375" /><circle cx="308" cy="136" r="0.35" /><circle cx="241" cy="102" r="0.425" /><circle cx="54" cy="155" r="0.275" /><circle cx="83" cy="20" r="0.4" /><circle cx="454" cy="30" r="0.425" /><circle cx="163" cy="45" r="0.4" /><circle cx="120" cy="108" r="0.4" /><circle cx="409" cy="93" r="0.325" /><circle cx="13" cy="3" r="0.325" /><circle cx="460" cy="263" r="0.35" /><circle cx="337" cy="148" r="0.375" /><circle cx="88" cy="132" r="0.4" /><circle cx="266" cy="69" r="0.35" /><circle cx="285" cy="37" r="0.3" /><circle cx="441" cy="135" r="0.325" /><circle cx="354" cy="71" r="0.45" /><circle cx="275" cy="197" r="0.425" /><circle cx="21" cy="88" r="0.275" /><circle cx="499" cy="80" r="0.3" /><circle cx="139" cy="179" r="0.35" /><circle cx="19" cy="35" r="0.325" /><circle cx="26" cy="29" r="0.3" /><circle cx="362" cy="87" r="0.45" /><circle cx="292" cy="2" r="0.35" /><circle cx="236" cy="177" r="0.275" /><circle cx="293" cy="106" r="0.425" /><circle cx="473" cy="126" r="0.3" /><circle cx="439" cy="93" r="0.35" /><circle cx="351" cy="12" r="0.325" /><circle cx="376" cy="84" r="0.375" /><circle cx="272" cy="90" r="0.325" /><circle cx="206" cy="192" r="0.375" /><circle cx="58" cy="110" r="0.375" /><circle cx="332" cy="97" r="0.325" /><circle cx="202" cy="29" r="0.35" /><circle cx="320" cy="200" r="0.325" /><circle cx="138" cy="121" r="0.35" /><circle cx="43" cy="103" r="0.375" /><circle cx="41" cy="219" r="0.45" /><circle cx="235" cy="36" r="0.375" /><circle cx="117" cy="12" r="0.325" /><circle cx="289" cy="5" r="0.325" /><circle cx="183" cy="97" r="0.35" /><circle cx="390" cy="25" r="0.325" /><circle cx="455" cy="50" r="0.325" /><circle cx="125" cy="131" r="0.35" /><circle cx="162" cy="82" r="0.325" /><circle cx="403" cy="69" r="0.375" /><circle cx="107" cy="38" r="0.4" /><circle cx="41" cy="51" r="0.4" /><circle cx="29" cy="110" r="0.375" /><circle cx="90" cy="10" r="0.35" /><circle cx="221" cy="43" r="0.425" /><circle cx="172" cy="18" r="0.4" /><circle cx="445" cy="45" r="0.4" /><circle cx="306" cy="141" r="0.375" /><circle cx="443" cy="31" r="0.375" /><circle cx="41" cy="0" r="0.3" /><circle cx="113" cy="96" r="0.375" /><circle cx="414" cy="168" r="0.375" /><circle cx="72" cy="45" r="0.3" /><circle cx="351" cy="130" r="0.35" /><circle cx="381" cy="98" r="0.3" /><circle cx="89" cy="176" r="0.35" /><circle cx="294" cy="120" r="0.35" /><circle cx="6" cy="68" r="0.375" /><circle cx="142" cy="91" r="0.475" /><circle cx="66" cy="246" r="0.275" /><circle cx="129" cy="202" r="0.35" /><circle cx="270" cy="239" r="0.325" /><circle cx="437" cy="28" r="0.4" /><circle cx="324" cy="65" r="0.375" /><circle cx="366" cy="5" r="0.375" /><circle cx="408" cy="164" r="0.375" /><circle cx="87" cy="177" r="0.35" /><circle cx="141" cy="45" r="0.35" /><circle cx="386" cy="13" r="0.275" /><circle cx="217" cy="58" r="0.25" /><circle cx="496" cy="21" r="0.375" /><circle cx="350" cy="179" r="0.425" /><circle cx="335" cy="34" r="0.325" /><circle cx="42" cy="168" r="0.4" /><circle cx="84" cy="118" r="0.3" /><circle cx="378" cy="190" r="0.425" /><circle cx="431" cy="68" r="0.325" /><circle cx="343" cy="7" r="0.35" /><circle cx="262" cy="87" r="0.325" /><circle cx="9" cy="87" r="0.325" /><circle cx="228" cy="196" r="0.3" /><circle cx="402" cy="7" r="0.4" /><circle cx="392" cy="29" r="0.325" /><circle cx="342" cy="101" r="0.3" /><circle cx="475" cy="59" r="0.325" /><circle cx="367" cy="65" r="0.325" /><circle cx="130" cy="112" r="0.325" /><circle cx="309" cy="138" r="0.4" /><circle cx="97" cy="170" r="0.325" /><circle cx="74" cy="128" r="0.45" /><circle cx="272" cy="190" r="0.325" /><circle cx="316" cy="24" r="0.35" /><circle cx="350" cy="55" r="0.375" /><circle cx="391" cy="208" r="0.325" /><circle cx="93" cy="51" r="0.325" /><circle cx="55" cy="113" r="0.35" /><circle cx="91" cy="229" r="0.325" /><circle cx="406" cy="112" r="0.35" /><circle cx="235" cy="11" r="0.35" /><circle cx="284" cy="209" r="0.375" /><circle cx="443" cy="80" r="0.25" /><circle cx="331" cy="58" r="0.35" /><circle cx="29" cy="28" r="0.325" /><circle cx="43" cy="108" r="0.375" /><circle cx="427" cy="53" r="0.35" /><circle cx="188" cy="95" r="0.425" /><circle cx="318" cy="131" r="0.375" /><circle cx="444" cy="12" r="0.375" /><circle cx="420" cy="65" r="0.375" /><circle cx="328" cy="266" r="0.375" /><circle cx="6" cy="93" r="0.375" /><circle cx="295" cy="5" r="0.35" /><circle cx="172" cy="65" r="0.4" /><circle cx="478" cy="220" r="0.375" /><circle cx="182" cy="159" r="0.275" /><circle cx="353" cy="117" r="0.3" /><circle cx="460" cy="70" r="0.325" /><circle cx="373" cy="78" r="0.375" /><circle cx="240" cy="44" r="0.35" /><circle cx="207" cy="32" r="0.325" /><circle cx="476" cy="106" r="0.4" /><circle cx="274" cy="69" r="0.3" /><circle cx="126" cy="22" r="0.45" /><circle cx="40" cy="18" r="0.35" /><circle cx="205" cy="20" r="0.425" /><circle cx="443" cy="143" r="0.425" /><circle cx="124" cy="152" r="0.325" /><circle cx="34" cy="64" r="0.375" /><circle cx="211" cy="147" r="0.375" /><circle cx="258" cy="96" r="0.325" /><circle cx="9" cy="89" r="0.375" /><circle cx="201" cy="156" r="0.375" /><circle cx="136" cy="10" r="0.35" /><circle cx="309" cy="214" r="0.4" /><circle cx="59" cy="225" r="0.375" /><circle cx="243" cy="64" r="0.35" /><circle cx="16" cy="11" r="0.35" /><circle cx="252" cy="63" r="0.325" /><circle cx="170" cy="107" r="0.3" /><circle cx="304" cy="42" r="0.425" /><circle cx="450" cy="33" r="0.375" /><circle cx="126" cy="90" r="0.35" /><circle cx="283" cy="205" r="0.375" /><circle cx="477" cy="46" r="0.4" /><circle cx="298" cy="147" r="0.325" /><circle cx="483" cy="11" r="0.275" /><circle cx="238" cy="141" r="0.325" /><circle cx="207" cy="156" r="0.4" /><circle cx="83" cy="3" r="0.4" /><circle cx="175" cy="54" r="0.425" /><circle cx="226" cy="177" r="0.325" /><circle cx="452" cy="107" r="0.275" /><circle cx="487" cy="112" r="0.35" /><circle cx="389" cy="82" r="0.275" /><circle cx="252" cy="67" r="0.45" /><circle cx="263" cy="45" r="0.375" /><circle cx="99" cy="105" r="0.375" /><circle cx="378" cy="68" r="0.3" /><circle cx="444" cy="63" r="0.475" /><circle cx="150" cy="94" r="0.375" /><circle cx="111" cy="66" r="0.375" /><circle cx="415" cy="17" r="0.3" /><circle cx="246" cy="10" r="0.325" /><circle cx="60" cy="218" r="0.3" /><circle cx="294" cy="227" r="0.3" /><circle cx="14" cy="149" r="0.325" /><circle cx="80" cy="78" r="0.325" /><circle cx="286" cy="21" r="0.325" /><circle cx="371" cy="9" r="0.4" /><circle cx="16" cy="104" r="0.375" /><circle cx="354" cy="226" r="0.3" /><circle cx="234" cy="3" r="0.275" /><circle cx="26" cy="69" r="0.35" /><circle cx="269" cy="0" r="0.35" /><circle cx="61" cy="156" r="0.425" /><circle cx="484" cy="47" r="0.425" /><circle cx="320" cy="182" r="0.275" /><circle cx="22" cy="23" r="0.375" /><circle cx="131" cy="117" r="0.3" /><circle cx="273" cy="1" r="0.375" /><circle cx="131" cy="69" r="0.4" /><circle cx="100" cy="216" r="0.4" /><circle cx="156" cy="11" r="0.375" /><circle cx="45" cy="86" r="0.45" /><circle cx="132" cy="171" r="0.425" /><circle cx="287" cy="83" r="0.4" /><circle cx="426" cy="222" r="0.45" /><circle cx="0" cy="18" r="0.325" /><circle cx="45" cy="193" r="0.35" /><circle cx="10" cy="67" r="0.25" /><circle cx="117" cy="0" r="0.3" /><circle cx="153" cy="80" r="0.375" /><circle cx="45" cy="0" r="0.325" /><circle cx="268" cy="21" r="0.475" /><circle cx="196" cy="90" r="0.3" /><circle cx="28" cy="36" r="0.3" /><circle cx="468" cy="138" r="0.3" /><circle cx="107" cy="113" r="0.275" /><circle cx="258" cy="63" r="0.3" /><circle cx="63" cy="103" r="0.425" /><circle cx="18" cy="57" r="0.35" /><circle cx="268" cy="268" r="0.325" /><circle cx="144" cy="119" r="0.325" /><circle cx="285" cy="92" r="0.375" /><circle cx="214" cy="62" r="0.3" /><circle cx="327" cy="170" r="0.325" /><circle cx="289" cy="163" r="0.375" /><circle cx="70" cy="8" r="0.35" /><circle cx="358" cy="63" r="0.375" /><circle cx="335" cy="60" r="0.275" /><circle cx="134" cy="14" r="0.3" /><circle cx="30" cy="168" r="0.425" /><circle cx="214" cy="87" r="0.275" /><circle cx="0" cy="27" r="0.325" /><circle cx="159" cy="22" r="0.4" /><circle cx="288" cy="65" r="0.35" /><circle cx="81" cy="92" r="0.425" /><circle cx="304" cy="50" r="0.4" /><circle cx="302" cy="66" r="0.275" /></svg>